<svg width="20" height="20" viewBox="0 0 20 20" fill="none" xmlns="http://www.w3.org/2000/svg">
<path d="M10.0001 13.9584C9.65841 13.9584 9.37508 13.6751 9.37508 13.3334C9.37508 12.9917 9.65841 12.7084 10.0001 12.7084C12.8751 12.7084 15.2084 10.3751 15.2084 7.50008C15.2084 4.62508 12.8751 2.29175 10.0001 2.29175C7.12508 2.29175 4.79175 4.62508 4.79175 7.50008C4.79175 7.84175 4.50841 8.12508 4.16675 8.12508C3.82508 8.12508 3.54175 7.84175 3.54175 7.50008C3.54175 3.94175 6.44175 1.04175 10.0001 1.04175C13.5584 1.04175 16.4584 3.94175 16.4584 7.50008C16.4584 11.0584 13.5584 13.9584 10.0001 13.9584Z" fill="#FF3700"/>
<path d="M10 18.9583C9.65833 18.9583 9.375 18.6749 9.375 18.3333V13.3333C9.375 12.9916 9.65833 12.7083 10 12.7083C10.3417 12.7083 10.625 12.9916 10.625 13.3333V18.3333C10.625 18.6749 10.3417 18.9583 10 18.9583Z" fill="#FF3700"/>
<path d="M12.5 16.4583H7.5C7.15833 16.4583 6.875 16.1749 6.875 15.8333C6.875 15.4916 7.15833 15.2083 7.5 15.2083H12.5C12.8417 15.2083 13.125 15.4916 13.125 15.8333C13.125 16.1749 12.8417 16.4583 12.5 16.4583Z" fill="#FF3700"/>
</svg>
